<mxfile host="app.diagrams.net" modified="2022-05-27T08:03:20.143Z" agent="5.0 (Macintosh; Intel Mac OS X 10_15_7) AppleWebKit/537.36 (KHTML, like Gecko) Chrome/101.0.4951.64 Safari/537.36" etag="8QvKBI0lp3DpLKCAUtnq" version="18.1.3" type="github">
  <diagram id="r7wa6TopY0feW6AkSZAH" name="Page-1">
    <mxGraphModel dx="1148" dy="641" grid="1" gridSize="10" guides="1" tooltips="1" connect="1" arrows="1" fold="1" page="1" pageScale="1" pageWidth="827" pageHeight="1169" math="0" shadow="0">
      <root>
        <mxCell id="0" />
        <mxCell id="1" parent="0" />
        <mxCell id="kjMXzJhlTvLxbaJ0WXyb-1" value="" style="rounded=1;whiteSpace=wrap;html=1;" vertex="1" parent="1">
          <mxGeometry x="70" y="130" width="130" height="80" as="geometry" />
        </mxCell>
        <mxCell id="kjMXzJhlTvLxbaJ0WXyb-2" value="" style="rounded=1;whiteSpace=wrap;html=1;" vertex="1" parent="1">
          <mxGeometry x="70" y="240" width="130" height="80" as="geometry" />
        </mxCell>
        <mxCell id="kjMXzJhlTvLxbaJ0WXyb-3" value="" style="endArrow=none;html=1;rounded=0;" edge="1" parent="1">
          <mxGeometry width="50" height="50" relative="1" as="geometry">
            <mxPoint x="240" y="350" as="sourcePoint" />
            <mxPoint x="240" y="70" as="targetPoint" />
          </mxGeometry>
        </mxCell>
        <mxCell id="kjMXzJhlTvLxbaJ0WXyb-4" value="" style="rounded=1;whiteSpace=wrap;html=1;" vertex="1" parent="1">
          <mxGeometry x="270" y="100" width="80" height="210" as="geometry" />
        </mxCell>
        <mxCell id="kjMXzJhlTvLxbaJ0WXyb-5" value="" style="rounded=1;whiteSpace=wrap;html=1;" vertex="1" parent="1">
          <mxGeometry x="490" y="130" width="80" height="200" as="geometry" />
        </mxCell>
        <mxCell id="kjMXzJhlTvLxbaJ0WXyb-7" value="" style="endArrow=none;html=1;rounded=0;" edge="1" parent="1">
          <mxGeometry width="50" height="50" relative="1" as="geometry">
            <mxPoint x="690" y="345" as="sourcePoint" />
            <mxPoint x="690" y="65" as="targetPoint" />
          </mxGeometry>
        </mxCell>
        <mxCell id="kjMXzJhlTvLxbaJ0WXyb-8" value="推荐引擎" style="rounded=1;whiteSpace=wrap;html=1;" vertex="1" parent="1">
          <mxGeometry x="290" y="30" width="256" height="30" as="geometry" />
        </mxCell>
        <mxCell id="kjMXzJhlTvLxbaJ0WXyb-9" value="" style="rounded=1;whiteSpace=wrap;html=1;" vertex="1" parent="1">
          <mxGeometry x="600" y="120" width="80" height="140" as="geometry" />
        </mxCell>
        <mxCell id="kjMXzJhlTvLxbaJ0WXyb-11" value="" style="rounded=1;whiteSpace=wrap;html=1;" vertex="1" parent="1">
          <mxGeometry x="390" y="120" width="80" height="140" as="geometry" />
        </mxCell>
        <mxCell id="kjMXzJhlTvLxbaJ0WXyb-12" value="基础依赖" style="rounded=1;whiteSpace=wrap;html=1;" vertex="1" parent="1">
          <mxGeometry x="270" y="380" width="400" height="40" as="geometry" />
        </mxCell>
        <mxCell id="kjMXzJhlTvLxbaJ0WXyb-21" value="特征处理" style="rounded=1;whiteSpace=wrap;html=1;" vertex="1" parent="1">
          <mxGeometry x="90" y="50" width="120" height="60" as="geometry" />
        </mxCell>
        <mxCell id="kjMXzJhlTvLxbaJ0WXyb-22" value="&lt;h3 style=&quot;box-sizing: border-box; margin: 2px 0px 12px; color: rgba(0, 0, 0, 0.85); font-weight: 400; font-family: &amp;quot;PingFang SC&amp;quot;; font-size: 14px; line-height: 22px; text-align: start; background-color: rgb(255, 255, 255);&quot; data-v-6730d91e=&quot;&quot;&gt;Galileo Graph&lt;/h3&gt;" style="rounded=1;whiteSpace=wrap;html=1;" vertex="1" parent="1">
          <mxGeometry x="280" y="450" width="80" height="40" as="geometry" />
        </mxCell>
        <mxCell id="kjMXzJhlTvLxbaJ0WXyb-23" value="&lt;h3 style=&quot;box-sizing: border-box; margin: 2px 0px 12px; color: rgba(0, 0, 0, 0.85); font-weight: 400; font-family: &amp;quot;PingFang SC&amp;quot;; font-size: 14px; line-height: 22px; text-align: start; background-color: rgb(255, 255, 255);&quot; data-v-6730d91e=&quot;&quot;&gt;SpeedNet&lt;/h3&gt;" style="rounded=1;whiteSpace=wrap;html=1;" vertex="1" parent="1">
          <mxGeometry x="490" y="450" width="80" height="40" as="geometry" />
        </mxCell>
        <mxCell id="kjMXzJhlTvLxbaJ0WXyb-24" value="&lt;h3 style=&quot;box-sizing: border-box; margin: 2px 0px 12px; color: rgba(0, 0, 0, 0.85); font-weight: 400; font-family: &amp;quot;PingFang SC&amp;quot;; font-size: 14px; line-height: 22px; text-align: start; background-color: rgb(255, 255, 255);&quot; data-v-6730d91e=&quot;&quot;&gt;Matchmaker&lt;/h3&gt;" style="rounded=1;whiteSpace=wrap;html=1;" vertex="1" parent="1">
          <mxGeometry x="390" y="450" width="80" height="40" as="geometry" />
        </mxCell>
        <mxCell id="kjMXzJhlTvLxbaJ0WXyb-25" value="&lt;h3 style=&quot;box-sizing: border-box; margin: 2px 0px 12px; color: rgba(0, 0, 0, 0.85); font-weight: 400; font-family: &amp;quot;PingFang SC&amp;quot;; font-size: 14px; line-height: 22px; text-align: start; background-color: rgb(255, 255, 255);&quot; data-v-6730d91e=&quot;&quot;&gt;SpeedEngine&lt;/h3&gt;" style="rounded=1;whiteSpace=wrap;html=1;" vertex="1" parent="1">
          <mxGeometry x="590" y="450" width="80" height="40" as="geometry" />
        </mxCell>
        <mxCell id="kjMXzJhlTvLxbaJ0WXyb-26" value="&lt;h3 style=&quot;box-sizing: border-box; margin: 2px 0px 12px; color: rgba(0, 0, 0, 0.85); font-weight: 400; font-family: &amp;quot;PingFang SC&amp;quot;; font-size: 14px; line-height: 22px; text-align: start; background-color: rgb(255, 255, 255);&quot; data-v-6730d91e=&quot;&quot;&gt;Spark&lt;/h3&gt;" style="rounded=1;whiteSpace=wrap;html=1;" vertex="1" parent="1">
          <mxGeometry x="180" y="450" width="80" height="40" as="geometry" />
        </mxCell>
        <mxCell id="kjMXzJhlTvLxbaJ0WXyb-27" value="组件化、分阶段自由可搭配" style="rounded=1;whiteSpace=wrap;html=1;" vertex="1" parent="1">
          <mxGeometry x="290" y="65" width="256" height="30" as="geometry" />
        </mxCell>
        <mxCell id="kjMXzJhlTvLxbaJ0WXyb-28" value="算法场景" style="rounded=1;whiteSpace=wrap;html=1;" vertex="1" parent="1">
          <mxGeometry x="700" y="60" width="120" height="60" as="geometry" />
        </mxCell>
      </root>
    </mxGraphModel>
  </diagram>
</mxfile>
